<svg width="40" height="40" viewBox="0 0 40 40" fill="none" xmlns="http://www.w3.org/2000/svg">
<g clip-path="url(#clip0_2_2)">
<path d="M0 0H40V40H0V0Z" fill="#B164FF"/>
<path d="M36.7262 30.4601C36.4335 28.635 35.2433 27.1027 31.7186 25.673C30.4943 25.1103 29.1293 24.7073 28.7224 23.7795C28.5779 23.2395 28.5589 22.9354 28.6502 22.6084C28.9125 21.5475 30.1787 21.2167 31.1825 21.5209C31.8289 21.7376 32.4411 22.2358 32.8099 23.0304C34.5361 21.9126 34.5323 21.9202 35.7376 21.1521C35.2966 20.4677 35.0608 20.1521 34.7719 19.8594C33.7338 18.6997 32.3194 18.1027 30.057 18.1483C29.6654 18.1978 29.27 18.251 28.8783 18.3004C27.7491 18.5856 26.673 19.1787 26.0418 19.9734C24.1483 22.1217 24.6882 25.8821 26.9924 27.4297C29.2624 29.1331 32.597 29.521 33.0228 31.1141C33.4373 33.0647 31.5894 33.6958 29.7528 33.4715C28.3992 33.1902 27.6464 32.5019 26.8327 31.251C25.3346 32.1179 25.3346 32.1179 23.7947 33.0038C24.1597 33.8023 24.5437 34.1635 25.1559 34.8556C28.0533 37.7947 35.3042 37.6502 36.6046 33.2016C36.6578 33.0494 37.0076 32.0304 36.7262 30.4601ZM21.7452 18.384H18.0038C18.0038 21.616 17.9886 24.8251 17.9886 28.057C17.9886 30.1141 18.0951 32 17.7605 32.5779C17.213 33.7148 15.7947 33.5741 15.1483 33.3536C14.4905 33.0304 14.1559 32.5703 13.7681 31.9202C13.6616 31.7338 13.5818 31.5894 13.5551 31.5779C12.54 32.1977 11.5285 32.8213 10.5133 33.4411C11.019 34.4791 11.7643 35.3802 12.7186 35.9657C14.1445 36.8213 16.0608 37.0836 18.0647 36.6235C19.3689 36.2433 20.4943 35.4563 21.0836 34.2586C21.9354 32.6882 21.7529 30.7871 21.7452 28.6844C21.7643 25.2548 21.7452 21.8251 21.7452 18.384Z" fill="#323330"/>
<path fill-rule="evenodd" clip-rule="evenodd" d="M1.4838 5.97468C1.40918 6.20543 1.05921 7.50337 1.02943 7.65981L1 7.81437L1.36096 8.37039C2.48825 10.1067 3.87466 12.195 3.90013 12.195C3.91129 12.195 4.03954 11.7674 4.18505 11.2449L4.4496 10.2948L4.3728 10.1548C4.31249 10.0449 3.74944 9.1928 3.57191 8.94277L3.53699 8.89358L3.43636 8.95343C3.35525 9.0017 3.30156 9.01485 3.15978 9.02131C2.90941 9.03266 2.73883 8.96156 2.52996 8.75875C2.07652 8.31854 1.88893 7.58415 2.04461 6.85852L2.08017 6.6928L1.80225 6.27112L1.5243 5.84946L1.4838 5.97468Z" fill="#323330"/>
<path fill-rule="evenodd" clip-rule="evenodd" d="M10.39 8.72754C10.0656 8.83445 9.8081 9.17579 9.69214 9.6527C9.66711 9.75581 9.63216 9.85269 9.61458 9.86804C9.59502 9.88503 8.73192 10.0078 7.40556 10.1823C4.88101 10.5144 4.97642 10.5013 4.95792 10.5179C4.93191 10.5413 4.26199 12.9841 4.27772 12.9983C4.29618 13.0149 5.0889 12.9178 8.63895 12.4645C10.1133 12.2762 11.331 12.1158 11.3449 12.1081C11.3709 12.0937 12.0514 9.69901 12.0514 9.62194C12.0514 9.5717 12.1052 9.56927 11.4245 9.65021C11.1533 9.68245 10.9252 9.70321 10.9175 9.69635C10.9099 9.6895 10.9223 9.56566 10.9452 9.42117C10.9862 9.16202 10.9861 9.15644 10.9354 9.0066C10.8771 8.83406 10.7758 8.71865 10.6825 8.71865C10.6495 8.71865 10.5909 8.7138 10.5524 8.70786C10.514 8.7019 10.4409 8.71075 10.39 8.72754Z" fill="#323330"/>
<path fill-rule="evenodd" clip-rule="evenodd" d="M11.7224 4.94628C11.303 5.00709 11.265 5.01712 11.2843 5.06218C11.3221 5.1508 11.3505 5.31058 11.3532 5.45002C11.3594 5.76748 11.239 5.95547 10.946 6.0856C10.789 6.15536 10.7391 6.16703 10.5983 6.167C10.3237 6.16693 10.0466 6.07517 9.75278 5.88699C9.60699 5.79359 9.2603 5.48518 9.165 5.3641L9.11454 5.29998L8.70397 5.34967C8.20313 5.41031 8.1596 5.41765 8.1596 5.44169C8.1596 5.45215 8.34542 5.74026 8.57255 6.08199L8.98553 6.7033L8.59546 8.12876C8.38092 8.91274 8.21181 9.55999 8.21973 9.56707C8.23308 9.57911 9.15792 9.46833 9.17543 9.45265C9.17981 9.44871 9.21006 9.37932 9.24268 9.29851C9.44193 8.80477 9.7306 8.47324 10.1055 8.30769C10.2235 8.25555 10.2731 8.24774 10.5267 8.24125C10.7977 8.23436 10.8217 8.23728 10.9475 8.29261C11.1181 8.36764 11.3003 8.53149 11.3776 8.67936C11.4108 8.74305 11.4558 8.87322 11.4775 8.96859C11.4992 9.06399 11.5196 9.14365 11.5227 9.14562C11.541 9.15706 12.2007 9.05225 12.2196 9.03487C12.2399 9.01634 13 6.35295 13 6.30057C13 6.27211 12.3364 5.17251 12.2263 5.01843C12.1769 4.94937 12.1201 4.89378 12.1 4.89486C12.08 4.89597 11.91 4.91913 11.7224 4.94628Z" fill="#323330"/>
<path fill-rule="evenodd" clip-rule="evenodd" d="M2.21782 3.35659C2.12886 3.66622 1.97733 4.20491 1.88105 4.55362L1.70602 5.18766L2.17554 5.89824C2.43376 6.28906 2.64988 6.61659 2.65579 6.62613C2.66173 6.63564 2.64441 6.70943 2.61731 6.79011C2.43734 7.32612 2.52155 7.92956 2.83311 8.33658C2.9379 8.47347 3.09036 8.57189 3.1518 8.54234C3.20376 8.51735 3.29767 8.35603 3.4156 8.08921C3.4596 7.98957 3.49861 7.91086 3.50222 7.91431C3.50579 7.91778 3.77389 8.31418 4.09796 8.79516C4.75783 9.77457 4.87481 9.94137 4.93063 9.98256C4.96292 10.0064 5.07267 9.99787 5.58547 9.93185C6.34751 9.83376 7.60568 9.66113 7.61407 9.65349C7.62203 9.64624 8.13012 7.81832 8.23407 7.423C8.27756 7.25755 8.30825 7.11774 8.30223 7.11233C8.29106 7.10232 7.14954 7.236 6.05767 7.37522C5.57084 7.4373 5.44763 7.44691 5.43114 7.42418C5.41983 7.40863 4.982 6.73672 4.45821 5.93103C3.59887 4.60934 2.50214 2.93013 2.434 2.83186C2.41944 2.8108 2.40122 2.79359 2.39353 2.79359C2.38584 2.79359 2.30677 3.04695 2.21782 3.35659ZM6.0495 3.00628C6.0997 3.01101 6.18179 3.01101 6.23192 3.00628C6.28213 3.00158 6.24105 2.99771 6.14071 2.99771C6.04037 2.99771 5.99936 3.00158 6.0495 3.00628Z" fill="#323330"/>
<path fill-rule="evenodd" clip-rule="evenodd" d="M4.83942 1.60798C4.60693 1.63227 2.87928 1.85928 2.70152 1.8889C2.53315 1.91698 2.49207 1.93103 2.50309 1.95681C2.52006 1.99663 3.89294 4.10983 4.94292 5.71239L5.71646 6.89303L5.90658 6.88771C6.07263 6.88305 8.04639 6.64063 8.19952 6.60606C8.23108 6.59898 8.25687 6.58599 8.25687 6.57727C8.25687 6.56035 7.77738 5.82563 6.98769 4.63246C6.72193 4.23088 6.50746 3.89978 6.51111 3.89663C6.51476 3.89348 6.64625 3.87138 6.80329 3.84754C7.25432 3.77906 7.40829 3.68452 7.36976 3.49982C7.35061 3.40803 7.18007 3.23533 7.0311 3.15687C6.80336 3.0369 6.64228 3.00461 6.26308 3.0029L5.91114 3.0013L5.56829 2.48241C4.97456 1.5838 4.98229 1.59306 4.83942 1.60798Z" fill="#323330"/>
<path fill-rule="evenodd" clip-rule="evenodd" d="M9.24198 1.02739C7.08992 1.30862 5.74915 1.4851 5.68464 1.49562C5.63327 1.50399 5.60561 1.52111 5.60561 1.54453C5.60561 1.56434 5.74075 1.78706 5.90596 2.0395L6.20627 2.49844L6.44795 2.513C6.85097 2.53731 7.13545 2.62267 7.41851 2.8042C7.61064 2.92745 7.72754 3.04954 7.82656 3.23035C7.89534 3.35593 7.90413 3.39299 7.90413 3.5583C7.9042 3.72407 7.89621 3.75761 7.832 3.86183C7.75126 3.99285 7.61451 4.10924 7.46178 4.17696L7.35991 4.22212L7.39804 4.28948C7.41898 4.32654 7.52851 4.4977 7.64143 4.66981C7.83605 4.96655 7.8501 4.98216 7.91194 4.97071C7.9836 4.9574 9.31838 4.78319 9.34852 4.78319C9.35881 4.78319 9.42832 4.85947 9.50293 4.95264C9.64997 5.13626 9.96352 5.42618 10.1146 5.51817C10.2568 5.60478 10.481 5.67962 10.5982 5.67962C10.8995 5.67962 10.9057 5.43454 10.6179 4.89932L10.4745 4.63279L10.5393 4.62115C10.5749 4.61475 10.8778 4.57392 11.2122 4.53047C11.5467 4.48701 11.8243 4.44789 11.8292 4.44353C11.8422 4.43195 11.7263 4.2499 10.9734 3.09969C10.0418 1.6763 9.61786 1.03795 9.58553 1.00983C9.56583 0.99269 9.46995 0.997609 9.24198 1.02739Z" fill="#323330"/>
</g>
<defs>
<clipPath id="clip0_2_2">
<rect width="40" height="40" rx="4" fill="white"/>
</clipPath>
</defs>
</svg>
