<svg width="12" height="12" viewBox="0 0 12 12" fill="none" xmlns="http://www.w3.org/2000/svg">
<g clip-path="url(#clip0_2_2)">
<path d="M0 0H12V12H0V0Z" fill="#B164FF"/>
<path d="M11.0179 9.13803C10.93 8.5905 10.573 8.1308 9.51559 7.7019C9.14829 7.53308 8.73878 7.41218 8.61673 7.13384C8.57338 6.97187 8.56768 6.88061 8.59506 6.78251C8.67376 6.46426 9.05361 6.36502 9.35475 6.45628C9.54867 6.5213 9.73232 6.67074 9.84297 6.90913C10.3608 6.57378 10.3597 6.57605 10.7213 6.34564C10.589 6.14032 10.5183 6.04563 10.4316 5.95781C10.1202 5.6099 9.69582 5.43081 9.01711 5.4445C8.89962 5.45933 8.781 5.47529 8.6635 5.49013C8.32473 5.57568 8.0019 5.75363 7.81255 5.99203C7.24449 6.63652 7.40646 7.76464 8.09772 8.22891C8.77871 8.73994 9.77909 8.85629 9.90684 9.33424C10.0312 9.91941 9.47682 10.1087 8.92586 10.0415C8.51977 9.95705 8.29393 9.75059 8.04981 9.3753C7.60039 9.63538 7.60039 9.63538 7.13841 9.90116C7.24792 10.1407 7.36312 10.2491 7.54678 10.4567C8.41598 11.3384 10.5913 11.2951 10.9814 9.96047C10.9973 9.91483 11.1023 9.60913 11.0179 9.13803ZM6.52357 5.51521H5.40114C5.40114 6.48479 5.39659 7.44753 5.39659 8.41711C5.39659 9.03422 5.42853 9.6 5.32815 9.77339C5.16389 10.1144 4.73841 10.0722 4.5445 10.0061C4.34716 9.90912 4.24678 9.77109 4.13043 9.57605C4.09849 9.52016 4.07454 9.47681 4.06654 9.47339C3.76199 9.65932 3.45856 9.84638 3.15399 10.0323C3.30572 10.3437 3.52928 10.6141 3.81559 10.7897C4.24335 11.0464 4.81825 11.1251 5.4194 10.9871C5.81066 10.873 6.14829 10.6369 6.3251 10.2776C6.58061 9.80647 6.52586 9.23613 6.52357 8.60533C6.52928 7.57643 6.52357 6.54753 6.52357 5.51521Z" fill="#323330"/>
<path fill-rule="evenodd" clip-rule="evenodd" d="M0.445139 1.79241C0.422752 1.86163 0.317761 2.25102 0.308829 2.29795L0.299999 2.34432L0.408288 2.51112C0.746473 3.03201 1.1624 3.6585 1.17004 3.6585C1.17339 3.6585 1.21186 3.53023 1.25551 3.37347L1.33488 3.08845L1.31184 3.04645C1.29375 3.01346 1.12483 2.75785 1.07157 2.68284L1.0611 2.66808L1.03091 2.68603C1.00658 2.70052 0.990467 2.70446 0.947932 2.7064C0.872823 2.7098 0.821648 2.68847 0.758988 2.62763C0.622955 2.49557 0.56668 2.27525 0.613382 2.05756L0.624049 2.00785L0.540673 1.88134L0.457289 1.75484L0.445139 1.79241Z" fill="#323330"/>
<path fill-rule="evenodd" clip-rule="evenodd" d="M3.11701 2.61826C3.01967 2.65034 2.94243 2.75274 2.90764 2.89581C2.90013 2.92674 2.88965 2.95581 2.88437 2.96041C2.87851 2.96551 2.61957 3.00234 2.22167 3.05469C1.4643 3.15431 1.49293 3.15039 1.48738 3.15537C1.47957 3.16238 1.2786 3.89524 1.28332 3.89948C1.28885 3.90446 1.52667 3.87535 2.59168 3.73935C3.034 3.68286 3.3993 3.63475 3.40346 3.63244C3.41126 3.62811 3.61541 2.9097 3.61541 2.88658C3.61541 2.87151 3.63155 2.87078 3.42735 2.89506C3.346 2.90474 3.27755 2.91096 3.27526 2.90891C3.27297 2.90685 3.2767 2.8697 3.28356 2.82635C3.29585 2.74861 3.29582 2.74693 3.28063 2.70198C3.26314 2.65022 3.23273 2.6156 3.20476 2.6156C3.19484 2.6156 3.17727 2.61414 3.16573 2.61236C3.15419 2.61057 3.13227 2.61323 3.11701 2.61826Z" fill="#323330"/>
<path fill-rule="evenodd" clip-rule="evenodd" d="M3.51673 1.48388C3.39089 1.50213 3.37951 1.50514 3.38528 1.51865C3.39663 1.54524 3.40514 1.59317 3.40597 1.63501C3.40783 1.73024 3.37169 1.78664 3.28381 1.82568C3.23671 1.84661 3.22174 1.85011 3.17949 1.8501C3.09711 1.85008 3.01397 1.82255 2.92583 1.7661C2.88209 1.73808 2.77809 1.64555 2.7495 1.60923L2.73436 1.58999L2.61119 1.6049C2.46094 1.62309 2.44788 1.6253 2.44788 1.63251C2.44788 1.63565 2.50363 1.72208 2.57176 1.8246L2.69566 2.01099L2.57864 2.43863C2.51428 2.67382 2.46354 2.868 2.46592 2.87012C2.46992 2.87373 2.74738 2.8405 2.75263 2.83579C2.75394 2.83461 2.76302 2.81379 2.7728 2.78955C2.83258 2.64143 2.91918 2.54197 3.03165 2.49231C3.06705 2.47666 3.08192 2.47432 3.158 2.47237C3.2393 2.47031 3.24651 2.47118 3.28424 2.48778C3.33544 2.51029 3.39009 2.55945 3.41327 2.60381C3.42324 2.62291 3.43673 2.66196 3.44326 2.69058C3.44977 2.7192 3.45588 2.74309 3.45682 2.74368C3.4623 2.74712 3.6602 2.71567 3.66589 2.71046C3.67197 2.7049 3.9 1.90588 3.9 1.89017C3.9 1.88163 3.70093 1.55175 3.66788 1.50553C3.65306 1.48481 3.63603 1.46813 3.63001 1.46846C3.62399 1.46879 3.57301 1.47574 3.51673 1.48388Z" fill="#323330"/>
<path fill-rule="evenodd" clip-rule="evenodd" d="M0.665345 1.00698C0.638659 1.09987 0.593199 1.26147 0.564316 1.36609L0.511806 1.5563L0.652662 1.76947C0.730129 1.88672 0.794963 1.98498 0.796737 1.98784C0.798518 1.9907 0.793322 2.01283 0.785192 2.03704C0.731202 2.19784 0.756464 2.37887 0.849933 2.50098C0.881369 2.54204 0.927107 2.57157 0.94554 2.56271C0.961127 2.55521 0.989301 2.50681 1.02468 2.42677C1.03788 2.39688 1.04958 2.37326 1.05067 2.3743C1.05174 2.37534 1.13217 2.49426 1.22939 2.63855C1.42735 2.93237 1.46244 2.98241 1.47919 2.99477C1.48888 3.00191 1.5218 2.99936 1.67564 2.97956C1.90425 2.95013 2.2817 2.89834 2.28422 2.89605C2.28661 2.89387 2.43904 2.3455 2.47022 2.2269C2.48327 2.17727 2.49247 2.13532 2.49067 2.1337C2.48732 2.1307 2.14486 2.1708 1.8173 2.21257C1.67125 2.23119 1.63429 2.23407 1.62934 2.22726C1.62595 2.22259 1.4946 2.02102 1.33746 1.77931C1.07966 1.38281 0.750641 0.879043 0.730201 0.84956C0.725831 0.843244 0.720365 0.838081 0.718059 0.838081C0.715753 0.838081 0.69203 0.914088 0.665345 1.00698ZM1.81485 0.901888C1.82991 0.903305 1.85454 0.903305 1.86958 0.901888C1.88464 0.900478 1.87231 0.899317 1.84221 0.899317C1.81211 0.899317 1.79981 0.900478 1.81485 0.901888Z" fill="#323330"/>
<path fill-rule="evenodd" clip-rule="evenodd" d="M1.45182 0.482394C1.38208 0.489681 0.863783 0.557784 0.810456 0.566671C0.759945 0.575093 0.74762 0.579311 0.750926 0.587044C0.756019 0.598988 1.16788 1.23295 1.48288 1.71372L1.71494 2.06791L1.77197 2.06631C1.82179 2.06492 2.41392 1.99219 2.45986 1.98182C2.46932 1.97969 2.47706 1.9758 2.47706 1.97318C2.47706 1.9681 2.33321 1.74769 2.09631 1.38974C2.01658 1.26927 1.95224 1.16993 1.95333 1.16899C1.95443 1.16805 1.99388 1.16141 2.04099 1.15426C2.1763 1.13372 2.22249 1.10536 2.21093 1.04995C2.20518 1.02241 2.15402 0.9706 2.10933 0.94706C2.04101 0.91107 1.99268 0.901382 1.87892 0.900871L1.77334 0.900392L1.67049 0.744724C1.49237 0.475139 1.49469 0.47792 1.45182 0.482394Z" fill="#323330"/>
<path fill-rule="evenodd" clip-rule="evenodd" d="M2.77259 0.308219C2.12697 0.392589 1.72474 0.445534 1.70539 0.448689C1.68998 0.451201 1.68168 0.456336 1.68168 0.463361C1.68168 0.469304 1.72223 0.536122 1.77179 0.611853L1.86188 0.749535L1.93439 0.753903C2.05529 0.761197 2.14063 0.786804 2.22555 0.841264C2.28319 0.878237 2.31826 0.914864 2.34797 0.969107C2.3686 1.00678 2.37124 1.0179 2.37124 1.06749C2.37126 1.11723 2.36886 1.12729 2.3496 1.15855C2.32538 1.19786 2.28435 1.23278 2.23853 1.25309L2.20797 1.26664L2.21941 1.28685C2.22569 1.29797 2.25855 1.34931 2.29243 1.40095C2.35081 1.48997 2.35503 1.49465 2.37358 1.49122C2.39508 1.48722 2.79551 1.43496 2.80456 1.43496C2.80764 1.43496 2.82849 1.45784 2.85088 1.4858C2.89499 1.54088 2.98906 1.62786 3.03437 1.65545C3.07704 1.68144 3.1443 1.70389 3.17947 1.70389C3.26986 1.70389 3.27171 1.63036 3.18536 1.4698L3.14236 1.38984L3.1618 1.38635C3.17248 1.38443 3.26333 1.37218 3.36366 1.35914C3.464 1.34611 3.54729 1.33437 3.54875 1.33306C3.55266 1.32959 3.51789 1.27497 3.29203 0.92991C3.01253 0.502893 2.88536 0.311387 2.87566 0.302952C2.86975 0.29781 2.84098 0.299286 2.77259 0.308219Z" fill="#323330"/>
</g>
<defs>
<clipPath id="clip0_2_2">
<rect width="12" height="12" rx="4" fill="white"/>
</clipPath>
</defs>
</svg>
